<?xml version="1.0" encoding="UTF-8" standalone="no"?>
<!-- Created with Inkscape (http://www.inkscape.org/) -->

<svg
   xmlns:dc="http://purl.org/dc/elements/1.1/"
   xmlns:cc="http://creativecommons.org/ns#"
   xmlns:rdf="http://www.w3.org/1999/02/22-rdf-syntax-ns#"
   xmlns:svg="http://www.w3.org/2000/svg"
   xmlns="http://www.w3.org/2000/svg"
   xmlns:sodipodi="http://sodipodi.sourceforge.net/DTD/sodipodi-0.dtd"
   xmlns:inkscape="http://www.inkscape.org/namespaces/inkscape"
   width="111.18124mm"
   height="111.18124mm"
   viewBox="0 0 393.94929 393.94929"
   id="svg2"
   version="1.1"
   inkscape:version="0.91 r13725"
   sodipodi:docname="dismiss_raised_hand.svg"
   inkscape:export-filename="/tmp/dismiss_raised_hand.png"
   inkscape:export-xdpi="228.45583"
   inkscape:export-ydpi="228.45583">
  <defs
     id="defs4" />
  <sodipodi:namedview
     id="base"
     pagecolor="#ffffff"
     bordercolor="#666666"
     borderopacity="1.0"
     inkscape:pageopacity="0.0"
     inkscape:pageshadow="2"
     inkscape:zoom="0.24748737"
     inkscape:cx="507.39999"
     inkscape:cy="-282.74334"
     inkscape:document-units="px"
     inkscape:current-layer="layer1"
     showgrid="false"
     fit-margin-top="0"
     fit-margin-left="0"
     fit-margin-right="0"
     fit-margin-bottom="0" />
  <metadata
     id="metadata7">
    <rdf:RDF>
      <cc:Work
         rdf:about="">
        <dc:format>image/svg+xml</dc:format>
        <dc:type
           rdf:resource="http://purl.org/dc/dcmitype/StillImage" />
        <dc:title></dc:title>
      </cc:Work>
    </rdf:RDF>
  </metadata>
  <g
     inkscape:label="Ebene 1"
     inkscape:groupmode="layer"
     id="layer1"
     transform="translate(-202.54067,-247.78075)">
    <path
       style="fill:#000000;fill-opacity:1;fill-rule:evenodd;stroke:none;stroke-width:1px;stroke-linecap:butt;stroke-linejoin:miter;stroke-opacity:1"
       d="m 240.53711,280.64062 c -17.33705,0.0645 -35.04059,14.1343 -27.39453,41.38086 25.62515,91.31469 79.80184,144.64459 107.75195,167.13086 l 63.33594,-63.33398 C 351.67007,411.5265 302.21546,377.08739 265.79297,295.83008 261.2099,285.6054 250.93934,280.6019 240.53711,280.64062 Z m 253.5332,162.67969 -155.66992,155.66992 0,6.94336 152.66992,0 3.9043,-55.61718 8.08203,0 4.79492,55.61718 58.84375,0 0,-71.77929 c 0,-37.14486 -12.92225,-74.70112 -64.65039,-88.89453 -2.66868,-0.73225 -5.32562,-1.37256 -7.97461,-1.93946 z"
       id="path4201"
       inkscape:connector-curvature="0" />
    <path
       style="opacity:1;fill:#000000;fill-opacity:1;stroke:none;stroke-width:1;stroke-linecap:butt;stroke-linejoin:miter;stroke-miterlimit:4;stroke-dasharray:none;stroke-dashoffset:0;stroke-opacity:1"
       d="m 436.60742,280.93359 a 68.75,68.75 0 0 0 -68.75,68.75 68.75,68.75 0 0 0 33.54688,58.95899 l 94.16601,-94.16602 a 68.75,68.75 0 0 0 -58.96289,-33.54297 z"
       id="path4203"
       inkscape:connector-curvature="0" />
    <path
       style="fill:none;fill-rule:evenodd;stroke:#000000;stroke-width:45;stroke-linecap:round;stroke-linejoin:miter;stroke-miterlimit:4;stroke-dasharray:none;stroke-opacity:1"
       d="M 284.79104,588.9285 558.93121,314.78832"
       id="path4222"
       inkscape:connector-curvature="0" />
  </g>
  <g
     inkscape:groupmode="layer"
     id="layer2"
     inkscape:label="Ebene 2"
     style="display:none"
     transform="translate(-202.54067,-247.78075)">
    <g
       id="g4224">
      <path
         style="fill:#000000;fill-opacity:1;fill-rule:evenodd;stroke:none;stroke-width:1px;stroke-linecap:butt;stroke-linejoin:miter;stroke-opacity:1"
         d="m 240.53711,280.64062 c -17.33705,0.0645 -35.04059,14.1343 -27.39453,41.38086 35.38598,126.09718 125.25781,179.80664 125.25781,179.80664 l 0,104.10547 152.66992,0 3.9043,-55.61718 8.08203,0 4.79492,55.61718 58.84375,0 0,-71.77929 c 0,-37.14486 -12.92225,-74.70112 -64.65039,-88.89453 -29.1513,-7.99867 -56.91846,-5.29933 -87.88281,-10.10157 -18.4462,-2.86081 -96.59776,-23.82796 -148.36914,-139.32812 -4.58307,-10.22468 -14.85363,-15.22818 -25.25586,-15.18946 z"
         id="path4226"
         inkscape:connector-curvature="0" />
      <circle
         style="opacity:1;fill:#000000;fill-opacity:1;stroke:none;stroke-width:1;stroke-linecap:butt;stroke-linejoin:miter;stroke-miterlimit:4;stroke-dasharray:none;stroke-dashoffset:0;stroke-opacity:1"
         id="circle4228"
         cx="436.60715"
         cy="349.68365"
         r="68.75" />
    </g>
  </g>
</svg>
